<svg xmlns="http://www.w3.org/2000/svg" width="92" height="43" viewBox="0 0 92 43" fill="none"><g clip-path="url(#clip0_95_683)"><path d="M3.56213 31.9685C5.45971 31.9685 6.75702 32.1216 6.75702 32.9532V33.6319H3.66086C2.54522 33.6319 2.01406 34.0225 2.01406 34.7696C2.01406 36.6706 7.29016 36.4834 7.29016 39.9974C7.29016 41.6446 6.20808 43.0019 3.31334 43.0019C1.61519 43.0019 0.00195312 42.8146 0.00195312 42.0353V41.3567H3.48118C4.71332 41.3567 5.32742 40.9157 5.32742 40.084C5.32742 38.1145 0.0513178 38.2676 0.0513178 34.7374C0.0513178 33.1244 1.20053 31.9705 3.56213 31.9705V31.9685Z" fill="#F7F5F7"></path><path d="M8.17285 38.6723C8.17285 36.2961 9.02192 34.3447 11.8337 34.3447C14.6456 34.3447 15.4946 36.2961 15.4946 38.6723C15.4946 41.0485 14.6456 42.9999 11.8337 42.9999C9.02192 42.9999 8.17285 41.0485 8.17285 38.6723ZM13.6977 38.6723C13.6977 36.7028 13.2653 35.6174 11.8337 35.6174C10.4022 35.6174 9.9875 36.7028 9.9875 38.6723C9.9875 40.6418 10.4041 41.7272 11.8337 41.7272C13.2633 41.7272 13.6977 40.6579 13.6977 38.6723Z" fill="#F7F5F7"></path><path d="M20.157 34.3447C22.0546 34.3447 22.7358 34.5481 22.7358 35.261V35.702H20.3228C18.8913 35.702 18.3088 36.4149 18.3088 38.6723C18.3088 40.9297 18.8913 41.6426 20.3228 41.6426H22.7358V42.1017C22.7358 42.8146 22.0526 43.0019 20.157 43.0019C17.3116 43.0019 16.4961 41.0506 16.4961 38.6743C16.4961 36.2981 17.3116 34.3467 20.157 34.3467V34.3447Z" fill="#F7F5F7"></path><path d="M25.6 33.5474H23.8525V32.5626C23.8525 32.0189 24.052 31.7148 24.6009 31.7148H25.6V33.5474ZM23.8525 34.4294H24.8339C25.3828 34.4294 25.6 34.7355 25.6 35.2772V42.9134H23.8525V34.4274V34.4294Z" fill="#F7F5F7"></path><path d="M32.8075 42.9153C32.2092 42.9153 31.9762 42.5931 31.9762 42.1863V41.9487C31.2594 42.7119 30.3294 42.9999 29.5454 42.9999C27.9638 42.9999 26.9824 42.0655 26.9824 40.6236C26.9824 38.5031 29.2631 37.9252 31.9742 37.8064V37.0935C31.9742 36.0242 31.2258 35.702 30.1595 35.702H27.5965V35.2106C27.5965 34.3951 28.5957 34.3447 30.4419 34.3447C32.5053 34.3447 33.7217 35.2268 33.7217 37.0089V42.9153H32.8055H32.8075ZM31.9762 38.8757C29.6955 38.9099 28.8306 39.367 28.8306 40.3699C28.8306 41.2519 29.4625 41.558 30.3116 41.558C30.9276 41.558 31.5595 41.3204 31.9762 40.9478V38.8777V38.8757Z" fill="#F7F5F7"></path><path d="M37.3022 42.9154H35.5547V32.5626C35.5547 32.0189 35.7541 31.7148 36.3031 31.7148H37.3022V42.9154Z" fill="#F7F5F7"></path><path d="M42.5459 32.901C42.5459 32.3573 42.7631 32.0532 43.312 32.0532H49.1706V32.901C49.1706 33.4608 48.8547 33.6642 48.3058 33.6642H44.3783V37.0252H48.44V38.5536H44.3783V42.9155H42.5479V32.901H42.5459Z" fill="#F7F5F7"></path><path d="M51.5678 33.5474H49.8203V32.5626C49.8203 32.0189 50.0197 31.7148 50.5687 31.7148H51.5678V33.5474ZM49.8203 34.4294H50.8017C51.3506 34.4294 51.5678 34.7355 51.5678 35.2772V42.9134H49.8203V34.4274V34.4294Z" fill="#F7F5F7"></path><path d="M53.3984 42.9154V34.4294H54.3146C54.9307 34.4294 55.1459 34.7516 55.1459 35.1583V35.4121C55.8627 34.6489 56.7276 34.3428 57.5925 34.3428C59.3222 34.3428 60.1555 35.4121 60.1555 36.9727V42.9133H58.408V37.0573C58.408 36.1229 57.8255 35.7504 56.8935 35.7504C56.2616 35.7504 55.612 36.0223 55.1459 36.3787V42.9133H53.3984V42.9154Z" fill="#F7F5F7"></path><path d="M67.3807 42.9153C66.7824 42.9153 66.5494 42.5931 66.5494 42.1863V41.9487C65.8326 42.7119 64.9026 42.9999 64.1187 42.9999C62.537 42.9999 61.5557 42.0655 61.5557 40.6236C61.5557 38.5031 63.8363 37.9252 66.5474 37.8064V37.0935C66.5474 36.0242 65.7991 35.702 64.7328 35.702H62.1698V35.2106C62.1698 34.3951 63.1689 34.3447 65.0151 34.3447C67.0786 34.3447 68.2949 35.2268 68.2949 37.0089V42.9153H67.3787H67.3807ZM66.5494 38.8757C64.2687 38.9099 63.4039 39.367 63.4039 40.3699C63.4039 41.2519 64.0357 41.558 64.8848 41.558C65.5009 41.558 66.1328 41.3204 66.5494 40.9478V38.8777V38.8757Z" fill="#F7F5F7"></path><path d="M70.127 42.9154V34.4294H71.0432C71.6592 34.4294 71.8745 34.7516 71.8745 35.1583V35.4121C72.5912 34.6489 73.4561 34.3428 74.321 34.3428C76.0507 34.3428 76.884 35.4121 76.884 36.9727V42.9133H75.1365V37.0573C75.1365 36.1229 74.554 35.7504 73.622 35.7504C72.9901 35.7504 72.3405 36.0223 71.8745 36.3787V42.9133H70.127V42.9154Z" fill="#F7F5F7"></path><path d="M81.9451 34.3447C83.8426 34.3447 84.5239 34.5481 84.5239 35.261V35.702H82.1109C80.6794 35.702 80.0969 36.4149 80.0969 38.6723C80.0969 40.9297 80.6794 41.6426 82.1109 41.6426H84.5239V42.1017C84.5239 42.8146 83.8407 43.0019 81.9451 43.0019C79.0997 43.0019 78.2842 41.0506 78.2842 38.6743C78.2842 36.2981 79.0997 34.3467 81.9451 34.3467V34.3447Z" fill="#F7F5F7"></path><path d="M91.599 41.6426V42.1178C91.599 42.8146 90.6828 42.9999 88.6707 42.9999C85.8746 42.9999 85.0098 41.0485 85.0098 38.6723C85.0098 36.2961 85.926 34.3447 88.6549 34.3447C90.8526 34.3447 91.9998 35.6335 91.9998 37.5526C91.9998 37.9776 91.9998 38.2998 91.9169 39.1475H86.8244C86.8244 40.964 87.4898 41.6426 88.8721 41.6426H91.6009H91.599ZM90.2345 37.9594C90.2503 37.8064 90.2503 37.5003 90.2503 37.315C90.2503 36.5518 89.9344 35.6174 88.6687 35.6174C87.5037 35.6174 86.8876 36.2961 86.8224 37.9594H90.2345Z" fill="#F7F5F7"></path><path d="M49.5962 23.0132H65.7681V20.8001H49.6278C49.6159 20.5443 49.6219 15.5522 49.5903 13.2465C49.5626 11.279 50.8797 9.36394 53.3677 9.40623C57.9033 9.48275 62.4429 9.48275 66.9805 9.4022C68.9353 9.36796 70.7144 10.832 70.7124 13.2122C70.7124 13.5445 70.7105 13.9513 70.7105 14.3822H54.5248V16.545L70.7105 16.541C70.7105 16.837 70.7164 21.8372 70.7105 24.1631C70.7045 26.5031 69.2335 27.9771 66.9114 27.9771C62.4132 27.9771 57.9132 27.9771 53.415 27.9771C51.0732 27.9771 49.61 26.4869 49.6001 24.1027C49.6001 23.7704 49.6001 23.4401 49.6001 23.0152" fill="#F7F5F7"></path><path d="M60.1723 7.09247C58.2589 7.09247 56.7128 5.48549 56.7227 3.50999C56.7326 1.57276 58.2866 -0.00401982 60.1842 7.69843e-06C62.0798 0.00403522 63.6318 1.58887 63.6338 3.52409C63.6377 5.49355 62.0857 7.09449 60.1703 7.09247" fill="#F7F5F7"></path><path d="M0.0195527 11.0876C0.0195527 10.0485 0.473708 9.49878 1.52221 9.49878H6.98787C11.2352 9.49878 13.6146 11.0594 13.6146 14.4949C13.6146 16.5167 12.5661 17.9908 10.6132 18.5104C12.9926 19.1447 14.2662 20.6188 14.2662 22.9286C14.2662 26.4224 11.8592 27.9831 7.63949 27.9831H1.52024C0.471733 27.9831 0.0175781 27.4333 0.0175781 26.3942V11.0876H0.0195527ZM6.81806 16.8933C8.48856 16.8933 9.50942 16.5188 9.50942 14.9863C9.50942 13.4538 8.43327 13.0511 6.67786 13.0511H4.12867V16.8933H6.82003H6.81806ZM7.3275 24.461C9.08291 24.461 10.1314 23.9415 10.1314 22.3224C10.1314 20.7033 9.08291 20.214 7.3275 20.214H4.1267V24.461H7.3275Z" fill="#F7F5F7"></path><path d="M23.497 9.35388C27.2922 9.35388 28.5105 9.96002 28.5105 11.4623V12.9927H23.497C20.6931 12.9927 19.8144 14.2352 19.8144 18.74C19.8144 23.2448 20.6931 24.4873 23.497 24.4873H28.5105V26.0178C28.5105 27.52 27.2922 28.1262 23.497 28.1262C18.3137 28.1262 15.5947 25.2948 15.5947 18.738C15.5947 12.1812 18.3137 9.34985 23.497 9.34985V9.35388Z" fill="#F7F5F7"></path><path d="M29.9287 11.0575C29.9287 10.0466 30.3533 9.49683 31.4018 9.49683H37.3769C41.6242 9.49683 44.0036 11.8952 44.0036 15.4475C44.0036 18.0191 42.7576 19.8959 40.3783 20.7618L44.5703 27.2038C44.7125 27.4636 44.825 27.7234 44.825 27.9832H41.1424C40.3783 27.9832 40.0939 27.9248 39.6141 27.1454L36.1289 21.4263H34.0339V27.9832H29.9268V11.0575H29.9287ZM34.0359 13.0511V17.9043H37.0945C38.8223 17.9043 40.011 17.2679 40.011 15.4495C40.011 13.6311 38.8203 13.0511 37.0945 13.0511H34.0359Z" fill="#F7F5F7"></path></g><defs><clipPath id="clip0_95_683"><rect width="92" height="42.9998" fill="white"></rect></clipPath></defs></svg>