<svg xmlns="http://www.w3.org/2000/svg" width="71" height="29" viewBox="0 0 71 29" fill="none"><path d="M49.5776 23.0132H65.7495V20.8001H49.6092C49.5974 20.5443 49.6033 15.5522 49.5717 13.2465C49.5441 11.279 50.8611 9.36394 53.3491 9.40623C57.8847 9.48275 62.4243 9.48275 66.9619 9.4022C68.9168 9.36796 70.6959 10.832 70.6939 13.2122C70.6939 13.5445 70.6919 13.9513 70.6919 14.3822H54.5062V16.545L70.6919 16.541C70.6919 16.837 70.6978 21.8372 70.6919 24.1631C70.686 26.5031 69.2149 27.9771 66.8928 27.9771C62.3947 27.9771 57.8946 27.9771 53.3965 27.9771C51.0546 27.9771 49.5915 26.4869 49.5816 24.1027C49.5816 23.7704 49.5816 23.4401 49.5816 23.0152" fill="#F7F5F7"></path><path d="M60.1538 7.09247C58.2404 7.09247 56.6943 5.48549 56.7041 3.50999C56.714 1.57276 58.268 -0.00401982 60.1656 7.69843e-06C62.0612 0.00403522 63.6132 1.58887 63.6152 3.52409C63.6192 5.49355 62.0671 7.09449 60.1518 7.09247" fill="#F7F5F7"></path><path d="M0.00197459 11.0876C0.00197459 10.0485 0.45613 9.49878 1.50464 9.49878H6.97029C11.2176 9.49878 13.597 11.0594 13.597 14.4949C13.597 16.5167 12.5485 17.9908 10.5956 18.5104C12.975 19.1447 14.2486 20.6188 14.2486 22.9286C14.2486 26.4224 11.8416 27.9831 7.62191 27.9831H1.50266C0.454155 27.9831 0 27.4333 0 26.3942V11.0876H0.00197459ZM6.80048 16.8933C8.47098 16.8933 9.49184 16.5188 9.49184 14.9863C9.49184 13.4538 8.41569 13.0511 6.66028 13.0511H4.11109V16.8933H6.80246H6.80048ZM7.30992 24.461C9.06533 24.461 10.1138 23.9415 10.1138 22.3224C10.1138 20.7033 9.06533 20.214 7.30992 20.214H4.10912V24.461H7.30992Z" fill="#F7F5F7"></path><path d="M23.4794 9.35388C27.2746 9.35388 28.4929 9.96002 28.4929 11.4623V12.9927H23.4794C20.6755 12.9927 19.7968 14.2352 19.7968 18.74C19.7968 23.2448 20.6755 24.4873 23.4794 24.4873H28.4929V26.0178C28.4929 27.52 27.2746 28.1262 23.4794 28.1262C18.2962 28.1262 15.5771 25.2948 15.5771 18.738C15.5771 12.1812 18.2962 9.34985 23.4794 9.34985V9.35388Z" fill="#F7F5F7"></path><path d="M29.9112 11.0575C29.9112 10.0466 30.3357 9.49683 31.3842 9.49683H37.3593C41.6066 9.49683 43.986 11.8952 43.986 15.4475C43.986 18.0191 42.7401 19.8959 40.3607 20.7618L44.5527 27.2038C44.6949 27.4636 44.8074 27.7234 44.8074 27.9832H41.1248C40.3607 27.9832 40.0763 27.9248 39.5965 27.1454L36.1114 21.4263H34.0163V27.9832H29.9092V11.0575H29.9112ZM34.0183 13.0511V17.9043H37.0769C38.8047 17.9043 39.9934 17.2679 39.9934 15.4495C39.9934 13.6311 38.8027 13.0511 37.0769 13.0511H34.0183Z" fill="#F7F5F7"></path></svg>