<svg xmlns="http://www.w3.org/2000/svg" width="108" height="40" viewBox="0 0 108 40" fill="none"><g clip-path="url(#clip0_95_735)"><path d="M51.6367 7.68237H60.8909V9.99312H54.3192V12.3865H60.1022V14.695H54.3192V17.1732H60.979V19.4839H51.6367V7.68237Z" fill="#F7F5F7"></path><path d="M63.377 7.68237H68.9859C70.5452 7.68237 71.7543 8.10409 72.561 8.88013C73.2458 9.53662 73.6119 10.4648 73.6119 11.5778V11.6104C73.6119 13.5147 72.543 14.7124 70.9837 15.2689L73.9802 19.4839H70.8255L68.1972 15.708H66.0775V19.4839H63.3792V7.68237H63.377ZM68.8097 13.4147C70.1249 13.4147 70.8774 12.7408 70.8774 11.7452V11.7126C70.8774 10.5996 70.0707 10.0257 68.7577 10.0257H66.0752V13.4147H68.8097Z" fill="#F7F5F7"></path><path d="M75.2044 17.7644L76.7999 15.9275C77.9049 16.8035 79.062 17.36 80.4631 17.36C81.5682 17.36 82.2326 16.9383 82.2326 16.2471V16.2144C82.2326 15.5558 81.8122 15.2188 79.7603 14.7145C77.288 14.108 75.6948 13.4516 75.6948 11.106V11.0734C75.6948 8.93223 77.4823 7.51709 79.9885 7.51709C81.7761 7.51709 83.3015 8.05619 84.5444 9.01701L83.1433 10.9734C82.0563 10.2496 80.9874 9.81044 79.9524 9.81044C78.9174 9.81044 78.375 10.2669 78.375 10.8386V10.8713C78.375 11.6473 78.9015 11.8995 81.0213 12.4233C83.5094 13.0472 84.9128 13.9059 84.9128 15.9645V15.9971C84.9128 18.3404 83.0552 19.6556 80.4089 19.6556C78.5513 19.6556 76.6756 19.0317 75.2021 17.7665L75.2044 17.7644Z" fill="#F7F5F7"></path><path d="M89.8554 10.0757H86.1221V7.68237H96.2892V10.0757H92.5559V19.4839H89.8576V10.0757H89.8554Z" fill="#F7F5F7"></path><path d="M98.3528 7.68237H107.607V9.99312H101.033V12.3865H106.816V14.695H101.033V17.1732H107.693V19.4839H98.3506V7.68237H98.3528Z" fill="#F7F5F7"></path><path d="M51.4297 31.7961L52.0127 31.1309C52.8828 31.8874 53.7167 32.2656 54.8737 32.2656C56.0308 32.2656 56.7336 31.6917 56.7336 30.9005V30.8787C56.7336 30.1331 56.3155 29.7092 54.5641 29.3527C52.6455 28.9527 51.7641 28.355 51.7641 27.0376V27.0137C51.7641 25.7529 52.9189 24.8247 54.5054 24.8247C55.7212 24.8247 56.5912 25.1573 57.4364 25.8094L56.8873 26.5094C56.1121 25.9007 55.337 25.6377 54.4805 25.6377C53.3958 25.6377 52.7043 26.2116 52.7043 26.9333V26.9572C52.7043 27.7137 53.1336 28.1376 54.9686 28.5158C56.8285 28.9049 57.685 29.5592 57.685 30.7853V30.807C57.685 32.183 56.494 33.0764 54.8376 33.0764C53.5155 33.0764 52.4308 32.6525 51.4297 31.7917V31.7961Z" fill="#F7F5F7"></path><path d="M59.7191 31.3939V27.818H58.8604V27.0376H59.7191V25.2485H60.6366V27.0376H62.5914V27.818H60.6366V31.2808C60.6366 32.0025 61.0547 32.2655 61.6739 32.2655C61.9835 32.2655 62.2456 32.2069 62.5665 32.059V32.8155C62.2456 32.9764 61.8999 33.0677 61.4592 33.0677C60.4694 33.0677 59.7191 32.5981 59.7191 31.3939Z" fill="#F7F5F7"></path><path d="M64.2363 24.7681H65.2849V25.7419H64.2363V24.7681ZM64.2951 27.0375H65.2126V32.9633H64.2951V27.0375Z" fill="#F7F5F7"></path><path d="M67.6938 27.818H66.8486V27.0507H67.6938V26.5355C67.6938 25.8594 67.8836 25.3442 68.2294 25.0116C68.539 24.7138 68.9932 24.553 69.5514 24.553C69.9808 24.553 70.2655 24.5986 70.5638 24.7008V25.4681C70.2294 25.3768 69.9808 25.3182 69.6712 25.3182C68.9571 25.3182 68.5978 25.7312 68.5978 26.579V27.0615H70.5525V27.818H68.6091V32.9656H67.6916V27.818H67.6938Z" fill="#F7F5F7"></path><path d="M72.0463 31.3939V27.818H71.1875V27.0376H72.0463V25.2485H72.9638V27.0376H74.9185V27.818H72.9638V31.2808C72.9638 32.0025 73.3818 32.2655 74.001 32.2655C74.3106 32.2655 74.5728 32.2069 74.8937 32.059V32.8155C74.5728 32.9764 74.227 33.0677 73.7863 33.0677C72.7965 33.0677 72.0463 32.5981 72.0463 31.3939Z" fill="#F7F5F7"></path><path d="M76.4466 30.7178V27.0376H77.3641V30.5005C77.3641 31.6004 77.9833 32.2873 79.068 32.2873C80.1528 32.2873 80.9143 31.5417 80.9143 30.4309V27.0376H81.8206V32.9634H80.9143V31.933C80.4963 32.5743 79.8658 33.0894 78.8036 33.0894C77.3144 33.0894 76.4443 32.1265 76.4443 30.7157L76.4466 30.7178Z" fill="#F7F5F7"></path><path d="M83.8857 27.0399H84.8032V28.0703C85.2078 27.429 85.8518 26.9138 86.9117 26.9138C88.401 26.9138 89.271 27.8768 89.271 29.2876V32.9678H88.3535V29.505C88.3535 28.405 87.7343 27.7159 86.6496 27.7159C85.5648 27.7159 84.8032 28.4616 84.8032 29.5745V32.9678H83.8857V27.0421V27.0399Z" fill="#F7F5F7"></path><path d="M91.1604 33.9982L91.5784 33.3113C92.2812 33.8048 93.0677 34.0678 93.949 34.0678C95.3072 34.0678 96.1886 33.3461 96.1886 31.9592V31.2593C95.653 31.9462 94.9027 32.5092 93.7682 32.5092C92.2903 32.5092 90.8711 31.444 90.8711 29.7354V29.7115C90.8711 27.9812 92.3016 26.916 93.7682 26.916C94.9253 26.916 95.6756 27.466 96.175 28.1073V27.0421H97.0925V31.9375C97.0925 32.8548 96.8078 33.5526 96.3061 34.0352C95.7569 34.5634 94.9343 34.8265 93.9581 34.8265C92.9818 34.8265 91.9807 34.5504 91.1581 34.0004L91.1604 33.9982ZM96.2134 29.7224V29.7006C96.2134 28.4855 95.1174 27.6942 93.949 27.6942C92.7807 27.6942 91.8157 28.4746 91.8157 29.6898V29.7115C91.8157 30.9028 92.8055 31.7288 93.949 31.7288C95.0925 31.7288 96.2134 30.9158 96.2134 29.7224Z" fill="#F7F5F7"></path><path d="M42.2791 0H0.695312V40H42.2791V0Z" fill="#F7F5F7"></path><path d="M15.6855 21.6011C15.8437 22.1989 15.8935 23.3793 15.6855 24.4792L16.6031 24.6423C16.8494 23.3575 16.768 22.0489 16.5918 21.3794L15.6878 21.6011H15.6855Z" fill="#061A20"></path><path d="M14.8555 27.0811L15.2577 27.3072L15.66 27.5333C16.2023 26.6377 16.4035 25.6942 16.5119 25.1877L15.599 25.0073C15.495 25.4964 15.321 26.3138 14.8555 27.0811Z" fill="#061A20"></path><path d="M39.4793 14.1016C39.3437 13.6342 38.6206 12.1169 35.059 12.2147C31.0432 12.3212 26.4964 13.8364 24.9326 14.3994C24.8489 14.0907 24.693 13.8125 24.4648 13.582C23.6648 12.7669 22.2139 12.6777 21.6196 12.6777H21.4004C20.8128 12.6777 19.3643 12.7669 18.5643 13.582C18.3338 13.8146 18.1778 14.0951 18.0942 14.4059C16.5394 13.8451 11.9835 12.3234 7.95647 12.2169C4.39493 12.1234 3.67177 13.6386 3.53618 14.1038C3.29889 14.9211 3.78251 15.5754 3.92036 15.7406C4.28872 16.2754 4.88306 16.7362 5.68757 17.1145C6.80394 17.6383 7.57004 18.1818 8.03105 18.7774C8.48528 19.3643 9.63329 20.0056 10.596 20.236C10.7406 20.4838 10.9531 20.7208 11.0095 20.7816C11.3869 21.1881 12.0061 21.3925 12.8491 21.3925C13.0253 21.3925 13.2084 21.3838 13.3892 21.3664C16.553 21.0838 18.6547 20.0643 19.466 18.4144C19.4727 18.4013 19.4773 18.3905 19.4818 18.3774C19.4818 18.3774 19.4863 18.3644 19.4931 18.3448C20.0264 18.7644 20.6818 18.997 21.4298 18.997H21.6015C22.3428 18.997 22.9959 18.7665 23.5292 18.3513C23.536 18.3666 23.5382 18.3774 23.5382 18.3774C23.5427 18.3905 23.5473 18.4013 23.554 18.4144C24.3653 20.0643 26.467 21.0838 29.6286 21.3664C29.8139 21.3838 29.9947 21.3925 30.1709 21.3925C31.0139 21.3925 31.6331 21.186 32.0105 20.7816C32.0647 20.723 32.2794 20.486 32.4218 20.2382C33.3845 20.0078 34.5325 19.3665 34.9867 18.7796C35.4477 18.184 36.2161 17.6383 37.3302 17.1166C38.1347 16.7406 38.729 16.2775 39.0996 15.7428C39.2352 15.5798 39.7188 14.9254 39.4838 14.1059L39.4793 14.1016ZM4.68871 15.2341C4.68871 15.2341 4.67515 15.2146 4.67289 15.2124C4.66611 15.2015 4.65481 15.1907 4.64803 15.1798C4.61188 15.1385 4.30679 14.7711 4.43335 14.3407C4.47176 14.2103 4.87402 13.106 7.64009 13.106C7.73501 13.106 7.83218 13.106 7.93161 13.1103C12.0536 13.219 16.9281 14.9341 18.0513 15.3472C18.1033 15.8667 18.2117 16.3406 18.3744 16.7645C17.7665 16.7014 16.9281 16.6406 16.1666 16.6754C15.6332 16.4015 13.8751 15.5254 12.4581 15.0841C11.6265 14.8255 10.6005 14.5537 9.29657 14.5124C7.28303 14.445 6.24576 15.5341 5.81638 16.1623C5.30565 15.8884 4.926 15.5754 4.69323 15.2341H4.68871ZM10.7632 19.3469C10.2209 19.2078 9.61069 18.9057 9.19262 18.6079C9.35307 18.3427 9.70335 17.847 10.3451 17.2688C11.0367 16.6449 11.8954 16.1949 12.3293 15.9884C13.0728 16.2341 13.9112 16.5971 14.5892 16.9123C13.9519 17.0623 13.3146 17.2927 12.5282 17.7709C11.6355 18.3122 11.0502 18.9752 10.7632 19.3469ZM6.64575 16.5797C6.99151 16.1123 7.7802 15.3602 9.26267 15.408C9.93837 15.4298 10.5327 15.5211 11.0615 15.6385C10.6322 15.8928 10.144 16.2189 9.70787 16.6145C9.12708 17.1362 8.7542 17.6079 8.5237 17.9448C8.06947 17.4557 7.448 17.0058 6.64349 16.5819L6.64575 16.5797ZM18.6117 18.0448C17.9428 19.3817 16.1055 20.2186 13.2988 20.4686C13.1451 20.4838 12.9914 20.4904 12.8468 20.4904C12.2886 20.4904 11.8932 20.3817 11.7033 20.1773C11.631 20.0991 11.5519 19.9991 11.4886 19.9121C11.7101 19.6187 12.2231 19.0165 13.0253 18.5274C14.0061 17.9318 14.7022 17.7796 15.579 17.6318C16.553 17.4666 18.0535 17.621 18.727 17.7079C18.7247 17.7188 18.7202 17.7318 18.7179 17.7405C18.6773 17.8622 18.6298 17.9948 18.6095 18.0448H18.6117ZM21.5993 18.097H21.4275C19.9948 18.097 19.0705 16.9536 18.9552 15.0363C18.9349 14.6885 19.0275 14.4124 19.24 14.1972C19.6897 13.7386 20.6501 13.5755 21.3981 13.5755H21.6286C22.3767 13.5755 23.3371 13.7386 23.7891 14.1994C24.0015 14.4146 24.0942 14.6885 24.0716 15.0385C23.9586 16.9558 23.0343 18.0992 21.5993 18.0992V18.097ZM30.1687 20.4925C30.0218 20.4925 29.8704 20.486 29.7144 20.4708C26.9099 20.2208 25.0749 19.3817 24.4038 18.047C24.3857 17.9992 24.336 17.8666 24.2975 17.7427C24.2953 17.734 24.2908 17.7209 24.2885 17.7101C24.9619 17.6253 26.4625 17.471 27.4365 17.634C28.3133 17.7818 29.0094 17.9318 29.9901 18.5296C30.7879 19.0144 31.3031 19.6187 31.5268 19.9143C31.4636 20.0013 31.3845 20.1013 31.3122 20.1795C31.1223 20.3838 30.7269 20.4925 30.1687 20.4925ZM30.6862 15.9906C31.1201 16.1971 31.9766 16.6471 32.6703 17.271C33.3121 17.8492 33.6624 18.3448 33.8229 18.61C33.4048 18.9078 32.7946 19.21 32.2523 19.3491C31.9675 18.9774 31.38 18.3144 30.4896 17.7731C29.7031 17.2949 29.0659 17.0645 28.4286 16.9145C29.1043 16.5993 29.9449 16.2362 30.6884 15.9906H30.6862ZM34.4895 17.9448C34.2613 17.6079 33.8861 17.1384 33.3054 16.6145C32.8669 16.221 32.3811 15.8928 31.9517 15.6385C32.4828 15.5211 33.0771 15.4298 33.7506 15.408C35.2375 15.3624 36.024 16.1123 36.3697 16.5797C35.5675 17.0058 34.9438 17.4557 34.4895 17.9427V17.9448ZM38.3652 15.182C38.3494 15.1993 38.3403 15.2124 38.3403 15.2146C38.3381 15.2189 38.3268 15.232 38.3245 15.2363C38.0895 15.5776 37.7121 15.8884 37.1991 16.1645C36.7675 15.5341 35.7302 14.4472 33.7189 14.5146C32.4127 14.5559 31.3867 14.8276 30.5574 15.0863C29.1404 15.5298 27.3823 16.4036 26.8489 16.6775C26.0919 16.6427 25.2602 16.7014 24.6546 16.7645C24.8173 16.3406 24.9258 15.8645 24.9778 15.345C26.1235 14.9233 30.9777 13.2212 35.0839 13.1125C38.1166 13.0321 38.5415 14.2103 38.5799 14.345C38.7042 14.7733 38.3991 15.1428 38.3629 15.1841L38.3652 15.182Z" fill="#061A20"></path><path d="M21.5063 20.1338C20.2001 20.1338 18.2205 20.6707 18.1143 22.1424V22.1728V22.2032C18.2069 23.4684 18.4397 25.9161 18.9504 28.0986C19.5945 30.8484 20.4532 32.2418 21.5063 32.2418C22.5594 32.2418 23.4182 30.8484 24.0622 28.0986C24.5729 25.9139 24.8057 23.4662 24.8984 22.2032V22.1728V22.1424C24.7922 20.6707 22.8125 20.136 21.5063 20.1338ZM21.5063 21.0316C22.4555 21.0316 23.8792 21.3968 23.9673 22.1772C23.9605 22.2641 23.9537 22.3598 23.9447 22.4576H19.0679C19.0611 22.3598 19.0521 22.2641 19.0453 22.1772C19.1335 21.3968 20.5572 21.0316 21.5041 21.0316H21.5063ZM22.9413 28.7311H20.0736C20.0012 28.479 19.9312 28.2051 19.8611 27.9051C19.834 27.7921 19.8092 27.679 19.7843 27.566H23.2306C23.2057 27.679 23.1809 27.7921 23.1538 27.9051C23.0837 28.2051 23.0114 28.479 22.9413 28.7311ZM19.6058 26.6704C19.5312 26.2682 19.4657 25.8683 19.4092 25.4748H23.608C23.5492 25.8683 23.4837 26.2682 23.4114 26.6704H19.6058ZM19.2871 24.5792C19.2329 24.1466 19.1877 23.7336 19.1493 23.3575H23.8633C23.8272 23.7336 23.7797 24.1466 23.7255 24.5792H19.2849H19.2871ZM21.5086 31.3506C21.3323 31.3506 20.8645 31.0006 20.3628 29.6289H22.6543C22.1526 31.0006 21.6848 31.3506 21.5086 31.3506Z" fill="#061A20"></path><path d="M18.1746 10.7463L17.3506 11.1633L18.2366 12.7832L19.0605 12.3661L18.1746 10.7463Z" fill="#061A20"></path><path d="M24.842 10.7435L23.9561 12.3633L24.78 12.7803L25.666 11.1605L24.842 10.7435Z" fill="#061A20"></path><path d="M18.5105 9.57998C19.1975 10.0734 20.0223 10.7582 20.2709 11.1125C20.2754 11.119 20.2799 11.1277 20.2867 11.1386C19.8754 11.2364 19.6336 11.3516 19.6155 11.3603L20.0313 12.1625C20.0313 12.1625 20.6167 11.8929 21.507 11.8929C22.3974 11.8929 22.9782 12.1603 22.9827 12.1625L23.1906 11.7603L23.3985 11.3581C23.3805 11.3495 23.1387 11.2342 22.7274 11.1364C22.7341 11.1256 22.7387 11.1169 22.7432 11.1103C22.994 10.756 23.8189 10.0713 24.5036 9.57781C25.4528 8.89524 25.5793 8.31049 25.5951 8.19962L25.1341 8.13876L24.6731 8.07789C24.6731 8.07789 24.6731 8.07137 24.6776 8.05615C24.6776 8.0605 24.585 8.39961 23.9477 8.85828C23.794 8.96915 22.4291 9.9604 21.9726 10.606C21.9116 10.693 21.8325 10.8517 21.7624 10.9995C21.6788 10.9951 21.5952 10.9929 21.507 10.9929C21.4189 10.9929 21.3353 10.9951 21.2517 10.9995C21.1816 10.8495 21.1025 10.6908 21.0415 10.606C20.585 9.9604 19.2223 8.96915 19.0664 8.85828C18.4291 8.39961 18.3387 8.05833 18.3364 8.05615C18.341 8.0692 18.341 8.07789 18.341 8.07789L17.88 8.13876L17.4189 8.19962C17.4348 8.31049 17.5613 8.89524 18.5105 9.57781V9.57998Z" fill="#061A20"></path><path d="M27.3285 21.6011L26.4246 21.3794C26.246 22.0489 26.1669 23.3575 26.4133 24.6423L27.3308 24.4792C27.1206 23.3793 27.1703 22.1967 27.3308 21.6011H27.3285Z" fill="#061A20"></path><path d="M27.4159 25.0051L26.5029 25.1856C26.6114 25.692 26.8125 26.6333 27.3549 27.5311L27.7572 27.305L28.1594 27.0789C27.6939 26.3094 27.5199 25.4921 27.4159 25.0051Z" fill="#061A20"></path></g><defs><clipPath id="clip0_95_735"><rect width="107" height="40" fill="white" transform="translate(0.695312)"></rect></clipPath></defs></svg>