<svg xmlns="http://www.w3.org/2000/svg" width="89" height="38" viewBox="0 0 89 38" fill="none"><g clip-path="url(#clip0_95_705)"><path d="M10.8187 13.5723H0V24.43H10.8187V13.5723Z" fill="#F7F5F7"></path><path d="M7.21102 13.5723H3.60547V24.43H7.21102V13.5723Z" fill="#009FA3"></path><path d="M10.8164 20.8095V17.1909H-0.00225353V20.8095H10.8164Z" fill="#009FA3"></path><path d="M10.8187 27.1423H0V38.0001H10.8187V27.1423Z" fill="#F7F5F7"></path><path d="M10.8184 34.3796V30.761H-0.0002985V34.3796H10.8184Z" fill="#FFC834"></path><path d="M24.3421 27.1423H13.5234V38.0001H24.3421V27.1423Z" fill="#F7F5F7"></path><path d="M18.9309 36.4184C21.048 36.4184 22.7642 34.696 22.7642 32.5713C22.7642 30.4465 21.048 28.7241 18.9309 28.7241C16.8139 28.7241 15.0977 30.4465 15.0977 32.5713C15.0977 34.696 16.8139 36.4184 18.9309 36.4184Z" fill="#E72B5F"></path><path d="M10.8187 0H0V10.8577H10.8187V0Z" fill="#F7F5F7"></path><path d="M5.4095 1.79004L1.60645 8.39812H9.21054L5.4095 1.79004Z" fill="#4B70B6"></path><path d="M29.2959 10.605L31.5149 10.1296V21.8551H33.5403V23.9304H31.1884C30.1444 23.9304 29.2959 23.0808 29.2959 22.0311V10.605Z" fill="#F7F5F7"></path><path d="M44.4274 14.525V23.9284H42.5309L42.5128 22.6723C41.7913 23.5866 40.5397 24.1388 39.0987 24.1388C36.3477 24.1388 34.4512 22.1201 34.4512 19.2277C34.4512 16.3353 36.3477 14.3167 39.0987 14.3167C40.5598 14.3167 41.7913 14.8688 42.5128 15.7831L42.5309 14.527H44.4274V14.525ZM42.3032 19.2277C42.3032 17.4761 41.1282 16.2584 39.4393 16.2584C37.7504 16.2584 36.5754 17.4761 36.5754 19.2277C36.5754 20.9793 37.7504 22.197 39.4393 22.197C41.1282 22.197 42.3032 20.9793 42.3032 19.2277Z" fill="#F7F5F7"></path><path d="M55.9211 14.525V23.9284H54.0246L54.0065 22.7107C53.2104 23.6432 52.11 24.1185 50.8201 24.1185C48.4299 24.1185 46.876 22.4053 46.876 19.7212V14.525H49.0002V19.5877C49.0002 21.2443 49.8346 22.195 51.201 22.195C52.7569 22.195 53.7989 21.0521 53.7989 19.4724V14.5229H55.9231L55.9211 14.525Z" fill="#F7F5F7"></path><path d="M67.661 18.7322V23.9284H65.5367V18.8657C65.5367 17.2091 64.6842 16.2585 63.2614 16.2585C61.7055 16.2585 60.6252 17.4013 60.6252 18.981V23.9305H58.501V14.527H60.3975L60.4156 15.7649C61.2117 14.8122 62.3322 14.3369 63.6584 14.3369C66.0668 14.3369 67.661 16.0501 67.661 18.7342V18.7322Z" fill="#F7F5F7"></path><path d="M69.4825 19.2277C69.4825 16.3151 71.4939 14.3167 74.4706 14.3167C75.837 14.3167 77.012 14.792 78.0177 15.7629L76.7278 17.1524C76.1595 16.582 75.3433 16.2584 74.5089 16.2584C72.8018 16.2584 71.6067 17.4761 71.6067 19.2277C71.6067 20.9793 72.7817 22.197 74.5089 22.197C75.4199 22.197 76.2542 21.8552 76.8226 21.2261L78.1306 22.6541C77.0866 23.6634 75.9297 24.1388 74.4887 24.1388C71.4535 24.1388 69.4805 22.197 69.4805 19.2277H69.4825Z" fill="#F7F5F7"></path><path d="M88.9998 18.7321V23.9283H86.8756V18.8656C86.8756 17.209 86.0231 16.2583 84.6002 16.2583C83.0443 16.2583 81.9641 17.4012 81.9641 18.9809V23.9304H79.8398V10.605L81.9641 10.1296V15.6313C82.7219 14.7757 83.7477 14.3368 84.9993 14.3368C87.446 14.3368 89.0018 16.0682 89.0018 18.7341L88.9998 18.7321Z" fill="#F7F5F7"></path></g><defs><clipPath id="clip0_95_705"><rect width="89" height="38" fill="white"></rect></clipPath></defs></svg>